<svg width="80" height="80" viewBox="0 0 80 80" fill="none" xmlns="http://www.w3.org/2000/svg">
<rect opacity="0.6" x="0.778846" y="0.778846" width="78.4423" height="78.4423" rx="11.6827" fill="white" stroke="#EDEDED" stroke-width="1.55769"/>
<path d="M52.9898 44.0173L50.232 41.2596V37.6063C50.2289 35.0817 49.2897 32.6479 47.5961 30.7756C45.9026 28.9033 43.5749 27.7254 41.0633 27.4698V25.3813H39.0258V27.4698C36.5141 27.7254 34.1865 28.9033 32.4929 30.7756C30.7994 32.6479 29.8602 35.0817 29.857 37.6063V41.2596L27.0993 44.0173C26.9082 44.2083 26.8008 44.4674 26.8008 44.7376V47.7938C26.8008 48.064 26.9081 48.3232 27.0992 48.5142C27.2902 48.7053 27.5493 48.8126 27.8195 48.8126H34.9508V49.6042C34.9282 50.8967 35.3835 52.1521 36.2296 53.1295C37.0756 54.107 38.2527 54.7377 39.5352 54.9006C40.2434 54.9709 40.9584 54.8921 41.6344 54.6694C42.3103 54.4467 42.9322 54.0849 43.4599 53.6075C43.9877 53.13 44.4096 52.5474 44.6987 51.897C44.9878 51.2467 45.1375 50.543 45.1383 49.8313V48.8126H52.2695C52.5397 48.8126 52.7988 48.7053 52.9899 48.5142C53.1809 48.3232 53.2883 48.064 53.2883 47.7938V44.7376C53.2882 44.4674 53.1809 44.2083 52.9898 44.0173ZM43.1008 49.8313C43.1008 50.6419 42.7788 51.4193 42.2056 51.9924C41.6325 52.5656 40.8551 52.8876 40.0445 52.8876C39.234 52.8876 38.4566 52.5656 37.8834 51.9924C37.3103 51.4193 36.9883 50.6419 36.9883 49.8313V48.8126H43.1008V49.8313ZM51.2508 46.7751H28.8383V45.1594L31.596 42.4016C31.7871 42.2106 31.8945 41.9515 31.8945 41.6813V37.6063C31.8945 35.4448 32.7532 33.3718 34.2816 31.8434C35.81 30.315 37.883 29.4563 40.0445 29.4563C42.206 29.4563 44.279 30.315 45.8075 31.8434C47.3359 33.3718 48.1945 35.4448 48.1945 37.6063V41.6813C48.1946 41.9515 48.302 42.2106 48.493 42.4016L51.2508 45.1594V46.7751Z" fill="#3D90BB"/>
</svg>
