<svg width="27" height="30" viewBox="0 0 27 30" fill="none" xmlns="http://www.w3.org/2000/svg">
<path d="M26.189 18.636L23.4312 15.8782V12.225C23.4281 9.70037 22.4889 7.26659 20.7954 5.39426C19.1018 3.52194 16.7742 2.34407 14.2625 2.08844V0H12.225V2.08844C9.71335 2.34407 7.38569 3.52194 5.69213 5.39426C3.99857 7.26659 3.05941 9.70037 3.05625 12.225V15.8782L0.298494 18.636C0.107428 18.827 5.76994e-05 19.0861 0 19.3562V22.4125C0 22.6827 0.107332 22.9418 0.298385 23.1329C0.489438 23.3239 0.748561 23.4312 1.01875 23.4312H8.15V24.2228C8.12739 25.5154 8.58277 26.7707 9.4288 27.7482C10.2748 28.7256 11.4519 29.3563 12.7344 29.5193C13.4426 29.5895 14.1577 29.5108 14.8336 29.288C15.5095 29.0653 16.1314 28.7036 16.6591 28.2261C17.1869 27.7487 17.6089 27.166 17.8979 26.5157C18.187 25.8653 18.3367 25.1617 18.3375 24.45V23.4312H25.4687C25.7389 23.4312 25.9981 23.3239 26.1891 23.1329C26.3802 22.9418 26.4875 22.6827 26.4875 22.4125V19.3562C26.4874 19.0861 26.3801 18.827 26.189 18.636ZM16.3 24.45C16.3 25.2606 15.978 26.0379 15.4048 26.6111C14.8317 27.1843 14.0543 27.5062 13.2437 27.5062C12.4332 27.5062 11.6558 27.1843 11.0827 26.6111C10.5095 26.0379 10.1875 25.2606 10.1875 24.45V23.4312H16.3V24.45ZM24.45 21.3937H2.0375V19.778L4.79526 17.0203C4.98632 16.8292 5.09369 16.5702 5.09375 16.3V12.225C5.09375 10.0635 5.95241 7.9905 7.48083 6.46208C9.00925 4.93366 11.0822 4.075 13.2437 4.075C15.4053 4.075 17.4782 4.93366 19.0067 6.46208C20.5351 7.9905 21.3937 10.0635 21.3937 12.225V16.3C21.3938 16.5702 21.5012 16.8292 21.6922 17.0203L24.45 19.778V21.3937Z" fill="#3D90BB"/>
</svg>
