<svg width="35" height="25" viewBox="0 0 35 25" fill="none" xmlns="http://www.w3.org/2000/svg">
<g clip-path="url(#clip0_347_2527)">
<path d="M1.32031 8.22778C2.6709 5.29917 5.76311 3.64622 9.0459 4.08423C12.1083 4.49324 14.6362 6.94464 15.166 10.0178C15.5103 12.0133 15.0235 13.8627 14.167 15.6311C13.4763 17.055 12.547 18.3202 11.498 19.4963L11.4971 19.4954L11.3018 19.72C11.7697 19.9339 12.249 20.119 12.666 20.385C12.8404 20.4967 12.989 20.6431 13.127 20.7913C13.1975 20.867 13.2645 20.9418 13.3311 21.0149L13.5342 21.2268L13.5352 21.2288C13.6052 21.2995 13.6897 21.3556 13.7822 21.3938H13.7812C13.9143 21.4442 14.0313 21.5147 14.1133 21.6174C14.1975 21.723 14.2378 21.8543 14.2305 22.011C14.2233 22.1645 14.1766 22.2943 14.085 22.3938C13.994 22.4924 13.8682 22.5523 13.7207 22.5823L13.7109 22.5833C13.6512 22.5899 13.5955 22.6164 13.5537 22.6584C13.0991 23.4103 12.3649 23.7658 11.6045 24.0325C10.0117 24.5904 8.36699 24.687 6.70801 24.5354C5.58818 24.4332 4.48482 24.2086 3.47949 23.6526C3.17604 23.4871 2.89927 23.2779 2.6582 23.0315L2.65723 23.0305C2.35285 22.7123 2.19861 22.3401 2.19824 21.9612C2.19796 21.5829 2.35057 21.2073 2.64355 20.8811L2.83105 20.6917C3.28313 20.2761 3.83837 20.0381 4.39648 19.8391C4.47542 19.8108 4.55547 19.7832 4.64844 19.7522L4.50586 19.5813C3.25344 18.1781 2.16048 16.6667 1.4375 14.9172L1.29785 14.5637C0.506642 12.4615 0.345855 10.3405 1.32031 8.22778ZM10.3115 20.803C10.2301 20.824 10.145 20.8761 10.0459 20.97C9.54202 21.449 9.00106 21.8907 8.46875 22.3313V22.3323C8.29334 22.477 8.13868 22.5691 7.97168 22.5706C7.80406 22.5719 7.65074 22.4816 7.47852 22.3401C6.97227 21.9233 6.44543 21.5102 5.97461 21.0442C5.84601 20.917 5.73277 20.8445 5.62012 20.8157C5.50953 20.7874 5.38627 20.7983 5.23145 20.8635C5.16657 20.8907 5.09747 20.9069 5.04004 20.9211C4.97927 20.9362 4.9287 20.9488 4.88477 20.97L4.88574 20.9709C4.45694 21.1804 4.02914 21.3501 3.65625 21.6057C3.47853 21.7276 3.41764 21.8426 3.41797 21.9397C3.41836 22.04 3.48337 22.1626 3.65234 22.2991L3.84082 22.4387C4.03433 22.5724 4.24143 22.686 4.45898 22.7776L4.66699 22.8616C5.71176 23.2618 6.81589 23.3737 7.94922 23.4163C8.59742 23.3549 9.23684 23.3203 9.87109 23.2268C10.6436 23.1137 11.3889 22.9145 12.0449 22.4963C12.3774 22.2844 12.5042 22.0961 12.5029 21.9426C12.5014 21.7913 12.374 21.612 12.0322 21.4202C11.5898 21.1723 11.0901 21.0296 10.5898 20.8333H10.5889C10.4778 20.7893 10.3906 20.7826 10.3115 20.803ZM9.22656 5.35571C7.97294 5.0954 6.6679 5.23307 5.49805 5.74927C4.32828 6.26547 3.35302 7.13426 2.71094 8.23071L2.70996 8.22974C1.64747 10.0581 1.67233 11.9693 2.37793 13.9026C3.46382 16.8773 5.56725 19.1085 7.94043 21.1643C9.75126 19.7692 12.3108 17.0357 13.3701 14.4143C13.8832 13.1438 14.1659 11.8488 14.002 10.4915C13.6991 7.97351 11.7412 5.8778 9.22656 5.35571Z" fill="white" stroke="white" stroke-width="0.2"/>
<path d="M32.5285 10.1718C32.7879 10.3698 33.0465 10.5285 33.2591 10.7353C33.8897 11.3488 33.8897 12.1531 33.2663 12.7764C32.7258 13.3229 32.0231 13.5619 31.2845 13.6912C30.1927 13.882 29.1117 13.8365 28.0649 13.4469C27.4866 13.2311 26.9785 12.9172 26.6623 12.3599C26.6057 12.2825 26.5224 12.2282 26.4281 12.2075C26.1479 12.1361 25.9948 11.9587 26.0065 11.6832C26.0182 11.4076 26.202 11.2516 26.4776 11.1954C26.5599 11.1798 26.6365 11.1425 26.6992 11.0875C27.0163 10.7826 27.3298 10.4696 27.6748 10.1228C27.6388 10.0773 27.5514 9.96761 27.4631 9.85526C26.5272 8.6961 25.7732 7.43796 25.5561 5.93997C25.2786 4.01933 25.8984 2.42236 27.5379 1.33364C29.1774 0.244919 30.9178 0.216386 32.5826 1.25161C34.2473 2.28683 34.9355 3.85437 34.7085 5.78839C34.5284 7.30421 33.7861 8.58018 32.8573 9.76253C32.7465 9.9043 32.6348 10.0407 32.5285 10.1718ZM30.1629 11.1473C30.7935 10.4705 31.4349 9.85705 31.9952 9.18562C32.8888 8.1076 33.5555 6.91367 33.7149 5.4879C33.9725 3.18562 31.816 1.19008 29.5152 1.61986C27.3776 2.01933 26.111 3.97207 26.6326 6.1192C27.1443 8.20123 28.5396 9.69476 30.1629 11.1473ZM30.4332 12.7969C30.7566 12.7184 31.3917 12.5927 32.0069 12.4036C32.3087 12.3145 32.6636 12.1433 32.6726 11.7732C32.6817 11.38 32.2952 11.2659 32.0087 11.0991C31.8385 11.0002 31.7187 11.0251 31.5709 11.1669C31.2331 11.4915 30.8701 11.7911 30.5143 12.0978C30.253 12.3225 29.9873 12.3163 29.7269 12.0978C29.4125 11.8303 29.0675 11.5869 28.7964 11.2801C28.5441 10.9957 28.3126 10.9877 28.0559 11.2017C27.8667 11.3595 27.5767 11.5726 27.5866 11.7456C27.5992 11.9489 27.8568 12.1914 28.0649 12.318C28.6865 12.6899 29.3936 12.7576 30.4314 12.7969H30.4332Z" fill="white"/>
<path d="M23.9887 12.1023C23.8086 12.1122 23.6281 12.1107 23.4482 12.0979C23.3169 12.0923 23.1931 12.0359 23.1035 11.9408C23.0138 11.8458 22.9655 11.7196 22.9689 11.5896C22.9676 11.5253 22.9792 11.4614 23.003 11.4016C23.0268 11.3417 23.0623 11.2871 23.1075 11.2409C23.1528 11.1947 23.2068 11.1579 23.2665 11.1325C23.3262 11.1071 23.3904 11.0937 23.4554 11.093C23.8133 11.0787 24.1718 11.0841 24.5292 11.109C24.8147 11.1278 24.9724 11.3052 24.9859 11.5887C24.9926 11.718 24.9477 11.8446 24.8609 11.9413C24.7741 12.0381 24.6524 12.0972 24.522 12.1059C24.3419 12.1159 24.1615 12.1159 23.9815 12.1059L23.9887 12.1023Z" fill="white"/>
<path d="M16.1224 22.5846C15.9323 22.573 15.7404 22.5739 15.5513 22.5481C15.4313 22.5409 15.319 22.4873 15.2386 22.3989C15.1582 22.3105 15.1161 22.1943 15.1216 22.0755C15.1126 21.808 15.2567 21.6002 15.5179 21.577C15.9197 21.5436 16.3236 21.5454 16.725 21.5824C16.9953 21.6056 17.134 21.8205 17.1259 22.0808C17.13 22.2002 17.0874 22.3164 17.007 22.4055C16.9266 22.4945 16.8147 22.5494 16.6944 22.5588C16.5043 22.5727 16.3135 22.5742 16.1233 22.5632L16.1224 22.5846Z" fill="white"/>
<path d="M25.9058 20.7282C25.8554 20.7969 25.7869 20.9681 25.659 21.0457C25.3541 21.23 25.0348 21.3898 24.7041 21.5236C24.6427 21.5521 24.576 21.5677 24.5083 21.5695C24.4405 21.5714 24.3731 21.5594 24.3102 21.5343C24.2473 21.5092 24.1903 21.4715 24.1428 21.4237C24.0953 21.3758 24.0582 21.3188 24.0339 21.2561C23.9249 20.9948 24.0339 20.7345 24.3096 20.5918C24.5852 20.4492 24.8663 20.3101 25.1509 20.1799C25.5275 20.0096 25.9238 20.2521 25.9058 20.7282Z" fill="white"/>
<path d="M21.7173 22.2654C21.3524 22.2654 21.1353 22.096 21.0948 21.8303C21.0766 21.7027 21.1089 21.5732 21.185 21.4686C21.261 21.3641 21.3749 21.2927 21.5029 21.2694C21.8308 21.2025 22.1623 21.1463 22.4938 21.1C22.6222 21.0776 22.7544 21.1043 22.8637 21.1747C22.9731 21.245 23.0514 21.3537 23.0829 21.4789C23.1 21.5437 23.1035 21.6113 23.0931 21.6775C23.0828 21.7437 23.0587 21.807 23.0226 21.8636C22.9864 21.9203 22.9389 21.9689 22.883 22.0066C22.827 22.0442 22.7638 22.0701 22.6974 22.0826C22.3506 22.1664 21.9956 22.2146 21.7173 22.2654Z" fill="white"/>
<path d="M19.078 22.532C18.9213 22.532 18.7645 22.54 18.6087 22.532C18.4782 22.5297 18.3535 22.4786 18.2595 22.3889C18.1656 22.2993 18.1095 22.1777 18.1024 22.0487C18.0947 21.9198 18.1386 21.7931 18.2246 21.696C18.3106 21.5989 18.4317 21.5392 18.5618 21.5298C18.9069 21.495 19.2546 21.4727 19.6014 21.4691C19.7317 21.4626 19.8594 21.5072 19.9566 21.5934C20.0538 21.6796 20.1126 21.8003 20.1203 21.9292C20.1256 21.9956 20.1175 22.0624 20.0966 22.1257C20.0757 22.189 20.0424 22.2475 19.9985 22.298C19.9546 22.3485 19.9011 22.3899 19.841 22.4198C19.7808 22.4497 19.7154 22.4675 19.6482 22.4723C19.5483 22.4847 19.4465 22.4856 19.3465 22.4928L19.0762 22.5168L19.078 22.532Z" fill="white"/>
<path d="M20.5916 12.335C20.2493 12.335 20.0214 12.1611 19.9988 11.8972C19.9745 11.6154 20.1123 11.4112 20.3862 11.3515C20.7365 11.2768 21.0912 11.2244 21.4483 11.1945C21.5155 11.187 21.5836 11.193 21.6484 11.2121C21.7133 11.2313 21.7736 11.2631 21.8257 11.3058C21.8778 11.3485 21.9207 11.4012 21.9518 11.4606C21.983 11.5201 22.0016 11.5852 22.0068 11.652C22.0195 11.7806 21.981 11.9091 21.8994 12.0101C21.8177 12.111 21.6995 12.1764 21.5699 12.1923C21.2285 12.2529 20.8835 12.2931 20.5916 12.335Z" fill="white"/>
<path d="M25.4681 16.7121C25.4618 17.158 25.1483 17.3969 24.8177 17.2953C24.4871 17.1936 24.1601 17.0777 23.8394 16.9502C23.7196 16.9127 23.6197 16.8297 23.5616 16.7194C23.5035 16.609 23.4919 16.4804 23.5295 16.3617C23.5411 16.2982 23.566 16.2378 23.6026 16.1843C23.6392 16.1309 23.6867 16.0856 23.742 16.0513C23.7972 16.0171 23.8592 15.9946 23.9237 15.9854C23.9883 15.9762 24.0541 15.9805 24.1169 15.9979C24.4943 16.0959 24.8618 16.2278 25.215 16.392C25.3492 16.4553 25.4204 16.6488 25.4681 16.7121Z" fill="white"/>
<path d="M21.2034 15.3943C21.4953 15.4487 21.834 15.4995 22.1745 15.5798C22.2412 15.5912 22.3048 15.6164 22.361 15.6538C22.4172 15.6911 22.4648 15.7397 22.5008 15.7965C22.5367 15.8533 22.5602 15.917 22.5696 15.9833C22.5791 16.0497 22.5743 16.1172 22.5556 16.1817C22.5276 16.3075 22.4517 16.4178 22.3437 16.4897C22.2356 16.5616 22.1038 16.5896 21.9755 16.5677C21.6433 16.5208 21.313 16.4613 20.9845 16.3894C20.9178 16.3781 20.8541 16.3535 20.7973 16.317C20.7405 16.2805 20.6918 16.2329 20.6542 16.1772C20.6166 16.1214 20.5908 16.0587 20.5786 15.9928C20.5663 15.9268 20.5677 15.8591 20.5828 15.7938C20.6296 15.5343 20.8557 15.3756 21.2034 15.3943Z" fill="white"/>
<path d="M27.0323 18.8309C27.026 18.9307 27.026 19.0315 27.0116 19.1305C26.9711 19.4104 26.7477 19.6111 26.4837 19.5861C26.2018 19.5602 26.0378 19.3944 25.9964 19.1171C25.9513 18.8112 25.9063 18.5054 25.8721 18.1987C25.8405 17.9187 25.9621 17.7172 26.2324 17.636C26.291 17.6136 26.3536 17.6032 26.4164 17.6055C26.4792 17.6079 26.5408 17.6228 26.5976 17.6495C26.6543 17.6763 26.705 17.7141 26.7464 17.7609C26.7879 17.8076 26.8192 17.8622 26.8387 17.9214C26.9477 18.2085 26.9891 18.5206 27.0594 18.8219L27.0323 18.8309Z" fill="white"/>
<path d="M19.1279 12.4814C19.1207 12.7489 18.1794 13.6557 17.9109 13.6503C17.8291 13.6493 17.7488 13.6285 17.6769 13.5897C17.605 13.551 17.5437 13.4955 17.4984 13.4281C17.453 13.3606 17.425 13.2832 17.4167 13.2027C17.4083 13.1221 17.42 13.0407 17.4506 12.9655C17.645 12.5338 17.9965 12.1902 18.4352 12.0034C18.5128 11.9688 18.5981 11.9547 18.6828 11.9625C18.7675 11.9703 18.8487 11.9997 18.9185 12.0479C18.9883 12.0961 19.0443 12.1613 19.081 12.2373C19.1177 12.3133 19.1339 12.3974 19.1279 12.4814Z" fill="white"/>
<path d="M19.6566 15.2793C19.6566 15.7322 19.3449 16.0042 19.026 15.874C18.647 15.7162 18.2864 15.5183 17.9504 15.2837C17.7234 15.1277 17.7081 14.87 17.8675 14.6319C17.9422 14.5263 18.0547 14.4527 18.1821 14.426C18.3096 14.3994 18.4425 14.4217 18.554 14.4884C18.8425 14.6321 19.1233 14.7905 19.3954 14.9627C19.5287 15.0528 19.6089 15.2186 19.6566 15.2793Z" fill="white"/>
<path d="M4.87891 11.2419C4.882 10.4317 5.2087 9.65564 5.78774 9.083C6.36678 8.51036 7.15113 8.18765 7.96965 8.1853C8.78738 8.18761 9.57123 8.50883 10.1513 9.07933C10.7314 9.64983 11.0609 10.4236 11.0685 11.233C11.0654 12.0482 10.7369 12.8291 10.1546 13.4055C9.57222 13.9819 8.78329 14.3071 7.95974 14.3101C7.14151 14.3033 6.35902 13.9773 5.78219 13.4028C5.20536 12.8284 4.88078 12.0519 4.87891 11.2419ZM10.0244 11.2312C10.0211 10.6904 9.80103 10.1729 9.41255 9.7926C9.02407 9.41225 8.49895 9.20008 7.95254 9.20269C7.40666 9.21157 6.88611 9.43216 6.50285 9.81702C6.1196 10.2019 5.90426 10.7203 5.90315 11.2606C5.90933 11.801 6.1316 12.317 6.52128 12.6955C6.91096 13.074 7.4363 13.2843 7.98226 13.2803C8.25282 13.2801 8.52064 13.2267 8.7702 13.1232C9.01975 13.0198 9.24608 12.8683 9.43605 12.6776C9.62601 12.4869 9.77584 12.2608 9.87685 12.0124C9.97785 11.7639 10.028 11.4981 10.0244 11.2303V11.2312Z" fill="white"/>
<path d="M30.1162 3.09478C30.3867 3.09279 30.6549 3.14361 30.9055 3.24435C31.156 3.34509 31.3841 3.49376 31.5765 3.68186C31.769 3.86995 31.9221 4.09377 32.027 4.34051C32.132 4.58724 32.1867 4.85204 32.1881 5.11975C32.1853 5.66019 31.9682 6.17794 31.5836 6.56151C31.1989 6.94509 30.6775 7.1638 30.1315 7.17057C29.5855 7.17105 29.0617 6.95687 28.6752 6.57513C28.2887 6.1934 28.0712 5.67536 28.0704 5.13491C28.0675 4.86745 28.1182 4.60208 28.2198 4.35421C28.3213 4.10635 28.4717 3.88095 28.662 3.69111C28.8524 3.50127 29.079 3.35079 29.3286 3.24842C29.5783 3.14605 29.846 3.09382 30.1162 3.09478ZM31.1522 5.14561C31.1543 5.01153 31.1298 4.87835 31.0799 4.75367C31.03 4.62898 30.9558 4.51525 30.8616 4.41895C30.7673 4.32265 30.6548 4.24568 30.5304 4.19243C30.4061 4.13918 30.2724 4.1107 30.1369 4.1086C29.8649 4.10643 29.6029 4.21037 29.4077 4.39793C29.2125 4.5855 29.0997 4.8416 29.0938 5.11083C29.0925 5.38013 29.1983 5.63912 29.3882 5.83195C29.5781 6.02477 29.837 6.13598 30.109 6.1416C30.381 6.14471 30.6433 6.04132 30.8387 5.85394C31.034 5.66656 31.1467 5.41037 31.1522 5.14115V5.14561Z" fill="white"/>
</g>
<defs>
<clipPath id="clip0_347_2527">
<rect width="35" height="25" fill="white"/>
</clipPath>
</defs>
</svg>
