<svg width="23" height="25" viewBox="0 0 23 25" fill="none" xmlns="http://www.w3.org/2000/svg">
<path d="M18.0049 3.23982C17.0781 3.67815 16.1048 4.38279 15.0582 5.52465C14.8365 4.50363 14.562 3.49956 13.6986 2.68937C13.7436 3.75035 13.7337 4.86147 13.1886 6.46308C12.68 5.40826 12.1392 4.37289 10.9618 3.70085C11.6203 5.0688 11.5686 6.54577 11.5193 8.02155C11.0711 7.3073 10.6701 6.56093 9.54455 6.31091C10.3318 7.42 10.4269 9.04776 10.4071 10.2519C10.4071 10.2519 6.80192 8.94729 3.64627 13.5621C0.0575144 18.8091 4.41669 21.7575 4.41669 21.7575L18.0049 3.23982ZM18.0067 3.24114L4.41821 21.7588C4.41821 21.7588 8.53999 25.0324 12.4682 20.0359C15.923 15.6408 13.5969 12.5927 13.5969 12.5927C14.7397 12.2127 16.3219 11.8158 17.6161 12.2341C17.0402 11.2369 16.207 11.0776 15.3918 10.8634C16.7857 10.3742 18.179 9.8803 19.6808 10.0992C18.6864 9.17751 17.5365 8.97215 16.3778 8.80352C17.7412 7.8023 18.7982 7.4595 19.8247 7.18488C18.7928 6.60435 17.7526 6.64371 16.7121 6.73847C17.4857 5.39617 17.8668 4.25693 18.0069 3.24142L18.0067 3.24114Z" fill="#F5A220"/>
</svg>
