<svg width="24" height="24" viewBox="0 0 24 24" fill="none" xmlns="http://www.w3.org/2000/svg">
<g clip-path="url(#clip0_428_1171)">
<path d="M20.5002 21.0007L16.1572 16.6577M16.1572 16.6577C16.9001 15.9148 17.4894 15.0329 17.8914 14.0622C18.2935 13.0916 18.5004 12.0513 18.5004 11.0007C18.5004 9.95009 18.2935 8.90978 17.8914 7.93915C17.4894 6.96852 16.9001 6.08658 16.1572 5.34369C15.4143 4.60081 14.5324 4.01152 13.5618 3.60947C12.5911 3.20742 11.5508 3.00049 10.5002 3.00049C9.4496 3.00049 8.40929 3.20742 7.43866 3.60947C6.46803 4.01152 5.58609 4.60081 4.84321 5.34369C3.34288 6.84402 2.5 8.87891 2.5 11.0007C2.5 13.1225 3.34288 15.1574 4.84321 16.6577C6.34354 18.158 8.37842 19.0009 10.5002 19.0009C12.622 19.0009 14.6569 18.158 16.1572 16.6577Z" stroke="#666666" stroke-width="2" stroke-linecap="round" stroke-linejoin="round"/>
</g>
<defs>
<clipPath id="clip0_428_1171">
<rect width="24" height="24" fill="white"/>
</clipPath>
</defs>
</svg>
